<?xml version="1.0" encoding="utf-8"?>
<!-- Generator: Adobe Illustrator 26.1.0, SVG Export Plug-In . SVG Version: 6.00 Build 0)  -->
<svg version="1.1" id="Layer_1" xmlns="http://www.w3.org/2000/svg" xmlns:xlink="http://www.w3.org/1999/xlink" x="0px" y="0px"
	 viewBox="0 0 619.9 630" style="enable-background:new 0 0 619.9 630;" xml:space="preserve">
<style type="text/css">
	.st0{fill:#FFFFFF;}
</style>
<g>
	<path d="M0,315.1C0.2,143.6,139.5,5.2,311.6,5.4c169.8,0.3,308.5,140,308.4,310.4c-0.1,170.3-139.8,310.7-312.1,309.7
		C138.4,624.5-0.2,485.3,0,315.1z M504,520.6c-48-55.2-73.9-118.8-78-191c-34.4,0-68.1,0-101.7,0c0,89.4,0,178.3,0,268
		C393.6,593.4,453.1,567.7,504,520.6z M323.9,33.6c0,89.4,0,178.4,0,267.5c34.3,0,68.1,0,102,0c4-72.7,29.7-136.4,77.2-191.2
		C452.5,60.5,382.5,35.2,323.9,33.6z M296.2,329.6c-30.1,0-59.4,0-88.9,0c-4.1,76.1-31.9,142-83.3,198.1
		c31.2,27.3,66.4,46.9,105.9,58.6c21.7,6.4,43.8,10.4,66.4,11.1C296.2,507.8,296.2,418.9,296.2,329.6z M123.2,103.8
		c25.4,27.2,45.4,57.4,59.8,91.3c14.4,34,22.3,69.5,24.2,106.2c29.9,0,59.2,0,88.5,0c0-89.5,0-178.6,0-268
		C230,37.3,172.9,60.7,123.2,103.8z M179.7,301.8c-4.1-68.9-29.5-128.1-76.2-178.8c-46.6,51-71.7,110.3-75.6,178.8
		C78.7,301.8,128.9,301.8,179.7,301.8z M104.1,508.5c46.5-50.9,71.7-110.2,75.6-178.7c-50.8,0-101.1,0-151.8,0
		C32.1,398.7,57.4,457.9,104.1,508.5z M453.6,301c46.7,0,92.4,0,138.6,0c-4-65-27.1-121.8-69.6-171.3
		C480.2,179.4,457.2,236.1,453.6,301z M592.2,329.2c-46.5,0-92.3,0-138.6,0c4,65.3,27.1,122,69.6,171.3
		C565.5,450.7,588.4,394,592.2,329.2z"/>
	<path class="st0" d="M592.2,329.2c-3.7,64.8-26.6,121.5-69,171.3c-42.5-49.4-65.6-106.1-69.6-171.3
		C499.9,329.2,545.6,329.2,592.2,329.2z"/>
</g>
</svg>
