<?xml version="1.0" encoding="utf-8"?>
<!-- Generator: Adobe Illustrator 26.1.0, SVG Export Plug-In . SVG Version: 6.00 Build 0)  -->
<svg version="1.1" id="Layer_1" xmlns="http://www.w3.org/2000/svg" xmlns:xlink="http://www.w3.org/1999/xlink" x="0px" y="0px"
	 viewBox="0 0 619.9 630" style="enable-background:new 0 0 619.9 630;" xml:space="preserve">
<g>
	<path d="M443.8,399.9c27.9-50.7,54.3-97.6,79.8-144.9c18.8-34.8,15-67.1-10.8-96.2c-16.5,21.6-37.4,19.3-60.4,12.4
		c-8.2-2.4-18.2,2.2-27.5,2.3c-12.3,0.1-30.4,3.8-35.6-2.6c-9.5-11.7,0.1-26.2,10.1-37c0.2-0.3-0.1-1-0.1-1.6
		c-21.6-19.2-19.7-32.5,6.1-52.9c9.9-7.9,18.6-17.4,27-26.9c7.1-8,14-11.5,25-7.9c30.8,10.3,62.2,19.3,92.9,29.9
		c33.7,11.6,58.5,35.8,58.7,71c0.6,102.1,14,204.3,0.9,306.3c-2.1,16.4-8.9,32.3-14,48.2c-6.2,19.1-13.8,37.8-19.1,57.1
		c-5.7,20.5-17.1,31.4-40.6,29.5c-30.7-2.5-61.1-8.2-91.7-12c-55.6-6.8-111.4-12.4-167-20.1c-54-7.5-96.6-35-127.2-80.1
		c-11.4-16.8-27.3-23.8-46.3-21.5c-20.1,2.5-34.8-5.9-48.4-18.4c-60.2-55.4-68.6-155.1-18.7-219.7c16.6-21.6,36.5-30.6,64.7-23.5
		c68.2,17.1,124.1,51,163.9,109.9c3.7,5.4,11.9,10.2,18.4,10.9c51.5,5.7,93.8,28.5,129.5,65.5C422.3,386.9,434.5,393.2,443.8,399.9z
		"/>
</g>
</svg>
