<svg id="Layer_1" data-name="Layer 1" xmlns="http://www.w3.org/2000/svg" viewBox="0 0 534.33 594.41"><defs><style>.cls-1,.cls-2,.cls-3{stroke:#fff;stroke-miterlimit:10;stroke-width:5px;}.cls-2{fill:#fff;}.cls-3{stroke-linecap:round;}</style></defs><title>me</title><path class="cls-1" d="M833.68,582.19c32.66,30.88,43.66,23.88,43.66,67.88-5,41-42,52-42,52s138-4,181-36,31-47,31-47-19-24-24-41-16-55-19-87,7-62,7-62Z" transform="translate(-692.66 -248.19)"/><path class="cls-1" d="M768.48,409c3.86,27.12,9.23,78.5,19.86,107.12,13,35,34,74,60,79s81-22,107-44,46-30,47-49-1-25,3-25,34-59,26-76-55-103-124-110-133,40-134,70S768.48,409,768.48,409Z" transform="translate(-692.66 -248.19)"/><path class="cls-2" d="M989.34,280.07c-69.76-21.15-116-42-171-20s-85,79-70,105,20,45,20,45,10-90,75-101c81.71-13.83,98,21,103,32s22,39,23,56,10,52,13,33,12-39,18-40,9,5,15,2,16,9,16,9,7-35,0-55S1022.34,290.07,989.34,280.07Z" transform="translate(-692.66 -248.19)"/><path class="cls-3" d="M1005.34,477.07a75.35,75.35,0,0,0,27-13c13-10,11-33,12-46s-7.64-30.89-23-39-34,23-38.54,48.37l-3.1,8.1" transform="translate(-692.66 -248.19)"/><path class="cls-1" d="M695.34,840.07c4-57,13-94,58-117,0,0,82-36,97-45a142.62,142.62,0,0,0,24.6-18.5s2.4,30.5,21.4,30.5,76-11,106-31,45-40,45-40,63,53,100,72,80,102,77,144C1067.34,835.07,695.34,840.07,695.34,840.07Z" transform="translate(-692.66 -248.19)"/></svg>