<svg id="Layer_1" data-name="Layer 1" xmlns="http://www.w3.org/2000/svg" viewBox="0 0 531.23 591.44"><defs><style>.cls-1{fill:#fff;}</style></defs><title>me_thin</title><path d="M1046,619.85l0,0-.64-.82c-3.35-4.35-18.91-25-23.36-40.18-5-17-16-55-19-87-.32-3.39-.49-6.76-.54-10.08,0-1.13,0-2.26,0-3.38,0-.42,0-.83,0-1.24,0-.58,0-1.16,0-1.73l-1-1.54c0,1.36-.09,2.73-.1,4.11-1.12,1.57-1.12,4.81-1.12,9.93,0,3.62,0,8.57-.33,14.88-.7,13.31-11.08,21.05-26.8,32.77-5.95,4.43-12.68,9.46-19.85,15.52-24.48,20.71-78.92,48.6-105.73,43.86l-.43-.08c-.59-.11-1.17-.24-1.75-.39l1.73,1.4,1.6,1.26c20,15.9,27.23,18.12,27.23,53.71a66.38,66.38,0,0,1-1.51,8.18h0c-.22.93-.47,1.85-.73,2.75v0c-.23.74-.46,1.47-.72,2.19h0c.1.61.22,1.28.35,2,1.72,9,6.9,25.85,21.61,25.85,17.88,0,75.71-10.6,106.55-31.17,25.6-17.06,40.5-34.35,44.29-39l.31-.39c.24.2.52.44.86.71A7.2,7.2,0,0,0,1046,619.85ZM877,651v-.12c0-33-6.18-37.8-22.7-50.64-1.17-.91-2.4-1.86-3.69-2.88,1.11.09,2.25.13,3.43.13,28.92,0,77.75-25.5,100.61-44.85,7.11-6,13.82-11,19.74-15.43,15.59-11.63,26.86-20,27.61-34.28q.22-4.53.28-8.13c3.47,32.37,14.52,70,18.76,84.36,4.61,15.68,20.64,36.78,23.69,40.72-2.75,3.46-17.65,21.42-44.28,39.17-30.52,20.34-87.75,30.83-105.45,30.83-15.42,0-19.41-21.85-20.23-28v0A67.16,67.16,0,0,0,877,651Z" transform="translate(-692.91 -250.39)"/><path class="cls-1" d="M1048.28,623a10.9,10.9,0,0,0-.43-1.65h0a7.46,7.46,0,0,0-1.08-2.17l-.07-.09v0c-1.37-1.76-19-24.51-23.74-40.55-4.35-14.78-15.89-54-19-86.81a126.29,126.29,0,0,1-.54-12.81,1.22,1.22,0,0,1,0-.27c0-.26,0-.53,0-.79s0-.59,0-.89a.49.49,0,0,1,0-.12h-.07l-.91-1.47-1-1.54c0,1.36-.09,2.73-.1,4.11,0,1.21,0,2.44,0,3.67,0,3.38.22,6.82.54,10.28.09.94.18,1.88.28,2.83,3.47,32.37,14.52,70,18.76,84.36,4.61,15.68,20.64,36.78,23.69,40.72l.48.62a1.08,1.08,0,0,1,.14.21,5,5,0,0,1,.49,1l.31-.39c.24.2.52.44.86.71h0Zm-194-22.85c-1.17-.91-2.4-1.86-3.69-2.88l-1.46-1.15-1.53-1.23-.43-.08c-.59-.11-1.17-.24-1.75-.39-.83-.21-1.65-.45-2.46-.74l2,1.64,1.79,1.44c2.27,1.82,4.37,3.46,6.32,5,16.39,12.74,21.92,17,21.93,49a66.09,66.09,0,0,1-1.55,8.3c-.16.64-.34,1.28-.52,1.9s-.37,1.25-.56,1.86c.16-.13.31-.27.45-.4.06.46.13,1,.22,1.55h0c.1.61.22,1.28.35,2,.24-.64.47-1.3.69-2s.47-1.42.69-2.17v0A67.16,67.16,0,0,0,877,651v-.12C877,617.83,870.8,613,854.28,600.19Z" transform="translate(-692.91 -250.39)"/><path d="M1017.13,378.77c-.23-.37-.47-.76-.72-1.14-20-31.72-59.13-80.6-110.43-85.8-69-7-133,40-134,70-.39,11.63-1.21,21.44-2.06,29.1-.44,3.87-.87,7.19-1.27,9.91a.09.09,0,0,0,0,.05c-.76,5.1-1.37,8.1-1.5,8.71,0,0,0,.08,0,.12.18,1.26.36,2.58.55,3.95v0c3.82,27.91,9.18,75.86,19.31,103.14,12.66,34.08,32.9,71.95,58,78.53.68.18,1.36.34,2,.47l.17,0q1,.18,2,.3c26.77,3.23,79.55-22.92,104.85-44.33,26-22,46-30,47-49,.57-10.91.16-17.53.46-21.19.13-1.65.41-2.7,1-3.27a1.56,1.56,0,0,1,.57-.37,1.89,1.89,0,0,1,.44-.13,3,3,0,0,1,.54,0l.09,0,.15,0h0a5.31,5.31,0,0,0,1.53-1.44c-1,.28-1.61.43-1.87.49h0a2.6,2.6,0,0,0-.4,0h-.07l-.91-1.47-1-1.54c0,1.36-.09,2.73-.1,4.11-1.12,1.57-1.12,4.81-1.12,9.93,0,3.62,0,8.57-.33,14.88-.7,13.31-11.08,21.05-26.8,32.77-5.95,4.43-12.68,9.46-19.85,15.52-24.48,20.71-78.92,48.6-105.73,43.86l-.43-.08c-.59-.11-1.17-.24-1.75-.39-.83-.21-1.65-.45-2.46-.74-26.12-8.88-45.54-51.65-55-77.24-8.79-23.66-13.94-62.72-17.7-91.24-.74-5.62-1.44-10.93-2.08-15.49.15-.72.72-3.59,1.42-8.34A178.45,178.45,0,0,1,781,364.82c9.59-21.54,28-48.4,61.11-54,34.59-5.86,61.37-3.64,79.61,6.57a50.07,50.07,0,0,1,22.31,24.85c1.18,2.6,3,6.13,5.15,10.21,6.77,13,17,32.63,17.76,45.44.67,11.3,5.86,37.64,11,39.35a.61.61,0,0,0,.18.05,1.26,1.26,0,0,0,.27,0h.1a1.4,1.4,0,0,0,.41-.05c1.86-.39,2.59-3.53,3-6.29.14-.87.28-1.73.45-2.59h0q.15-.86.33-1.71a97.79,97.79,0,0,1,13.41-32.82c.64-1,1.29-1.87,1.94-2.76a0,0,0,0,0,0,0h0c.33-.44.66-.88,1-1.3,3.21-4,6.66-7.16,10.22-8.9a11.55,11.55,0,0,1,7.18-1.22,9.88,9.88,0,0,1,1.4.35Z" transform="translate(-692.91 -250.39)"/><path class="cls-1" d="M1018.56,379.19l-.82-1.3a284.54,284.54,0,0,0-26.13-35.47c-27.25-31.24-56-48.59-85.53-51.59-47.86-4.85-90.81,16.11-113,35.54-13.67,11.95-21.71,24.86-22.06,35.43A350.08,350.08,0,0,1,767.6,401s0,.05,0,.07c-.56,3.69-1,6.22-1.27,7.48h0c-.11.58-.17.89-.18.91l0,.18,0,.18c.16,1.14.33,2.33.5,3.56v0c.51,3.71,1,7.8,1.61,12.06,3.77,28.61,8.94,67.81,17.8,91.68,10.14,27.31,31.51,74,60.69,79.62h.06c.64.12,1.29.23,2,.31s1.21.14,1.84.19c1.11.09,2.25.13,3.43.13,28.92,0,77.75-25.5,100.61-44.85,7.11-6,13.82-11,19.74-15.43,15.59-11.63,26.86-20,27.61-34.28q.22-4.53.28-8.13c0-2.66,0-4.94,0-6.85,0-2.8,0-4.77.13-6.15.14-1.81.42-2.58,1-2.82a1.33,1.33,0,0,1,.54-.1,1.39,1.39,0,0,0,.6-.11,5.09,5.09,0,0,0,1.73-1.49c.31-.37.67-.82,1.07-1.38l-1.62.48c-1,.28-1.61.43-1.87.49h0a2.6,2.6,0,0,0-.4,0h-.07a2.94,2.94,0,0,0-.95.26,2.57,2.57,0,0,0-1,.84c-1.12,1.57-1.12,4.81-1.12,9.93,0,3.62,0,8.57-.33,14.88-.7,13.31-11.08,21.05-26.8,32.77-5.95,4.43-12.68,9.46-19.85,15.52-24.48,20.71-78.92,48.6-105.73,43.86l-.43-.08c-.59-.11-1.17-.24-1.75-.39-.83-.21-1.65-.45-2.46-.74-26.12-8.88-45.54-51.65-55-77.24-8.79-23.66-13.94-62.72-17.7-91.24-.74-5.62-1.44-10.93-2.08-15.49.15-.72.72-3.59,1.42-8.34.42-2.82.89-6.29,1.35-10.37h0c.2-1.84.41-3.78.6-5.86.63-6.63,1.17-14.45,1.47-23.31.33-10,8.12-22.4,21.37-34,21.94-19.17,64.3-39.85,111.53-35.05,29,2.93,57.31,20.06,84.22,50.91a282.54,282.54,0,0,1,25.06,33.78l.65,1c.24.37.47.74.7,1.11a9.88,9.88,0,0,1,1.4.35,10.48,10.48,0,0,1,1.59.69Z" transform="translate(-692.91 -250.39)"/><path class="cls-1" d="M1032,388c0,.46-.1.9-.15,1.34s-.11.88-.16,1.31q-.43-.53-.9-1a40.52,40.52,0,0,0-11.3-8.93h0a10.48,10.48,0,0,0-1.59-.69,9.88,9.88,0,0,0-1.4-.35,11.55,11.55,0,0,0-7.18,1.22c-3.56,1.74-7,4.87-10.22,8.9-.33.42-.66.86-1,1.3h0a0,0,0,0,1,0,0,8.61,8.61,0,0,0-2.58,2h0a24.8,24.8,0,0,0-2.76,3.63l-.39.63c-.46.74-.92,1.54-1.37,2.38l-.53,1c-.54,1.05-1.07,2.17-1.6,3.34l-.63,1.43c-.21.49-.42,1-.62,1.48-.34.83-.67,1.67-1,2.54s-.54,1.48-.81,2.23c-.18.52-.36,1.05-.53,1.57-.55,1.66-1.08,3.36-1.56,5.1-.15.52-.3,1.06-.44,1.59,0,.08,0,.16-.07.25-.13.5-.26,1-.38,1.52s-.31,1.27-.46,1.91-.27,1.19-.4,1.78-.23,1.11-.34,1.67c-.07.35-.14.71-.2,1.06-.16.87-.31,1.75-.45,2.62a21.2,21.2,0,0,1-.76,3.36l0,.08-.27.68,0,.08c-.46,1-1,1.39-1.55,1.28a1.71,1.71,0,0,1-.88-.53c-3.8-3.73-8.75-25.59-9.48-37.95-1-17-18-45-23-56s-21.29-45.83-103-32c-45.47,7.69-64,54-71.07,81.2h0c-.95,3.66-1.69,7-2.26,9.8a.09.09,0,0,0,0,.05c-.82,4.08-1.29,7.13-1.5,8.71,0,0,0,.08,0,.12-.1.73-.14,1.11-.14,1.11s-.21-.78-.66-2.24h0c-1.78-5.76-7.39-22-19.34-42.75-15-26,15-83,70-105s101.24-1.14,171,20c33,10,35,46,42,66C1034.15,358.76,1033.35,376,1032,388Z" transform="translate(-692.91 -250.39)"/><path class="cls-1" d="M994.83,392.35c-5.22,5.43-10.59,18.64-13.51,31.48-.19.85-.38,1.69-.54,2.52-.11.54-.22,1.07-.31,1.59v0c-.17.91-.33,1.81-.47,2.7a22.06,22.06,0,0,1-.69,3.12l2.13-5.58c.06-.35.13-.71.2-1.06.11-.56.23-1.12.34-1.67s.26-1.18.4-1.78.3-1.28.46-1.91.25-1,.38-1.52c0-.09,0-.17.07-.25.14-.53.29-1.06.44-1.59.48-1.73,1-3.44,1.56-5.1.17-.53.35-1.05.53-1.57.27-.75.53-1.5.81-2.23s.65-1.71,1-2.54c.2-.5.41-1,.62-1.48s.41-1,.63-1.43c.52-1.17,1.06-2.29,1.6-3.34.17-.34.35-.68.53-1,.45-.84.91-1.64,1.37-2.38l.39-.63a24.8,24.8,0,0,1,2.76-3.63h0c.66-1,1.33-1.91,2-2.81A9.52,9.52,0,0,0,994.83,392.35Zm36.09-45.85c-1.35-3.87-2.52-8.38-3.77-13.16-5.25-20.16-11.79-45.26-38.88-53.47-9.48-2.87-18.49-5.73-27.21-8.49C905,253.6,864.47,240.76,816.61,259.9c-39.83,15.93-63.05,47.82-70.84,70.29-5,14.32-4.84,27.16.34,36.14C760.86,391.9,766,410.9,766,411.08l.62,2.34v0l.75,2.83.29-2.58v0l.3-2.73c0-.09.43-3.71,1.59-9.53A178.45,178.45,0,0,1,781,364.82c9.59-21.54,28-48.4,61.11-54,34.59-5.86,61.37-3.64,79.61,6.57a50.07,50.07,0,0,1,22.31,24.85c1.18,2.6,3,6.13,5.15,10.21,6.77,13,17,32.63,17.76,45.44.67,11.3,5.86,37.64,11,39.35a.61.61,0,0,0,.18.05,1.26,1.26,0,0,0,.27,0h.1a1.4,1.4,0,0,0,.41-.05c1.86-.39,2.59-3.53,3-6.29.14-.87.28-1.73.45-2.59h0q.15-.86.33-1.71c2.94-14.59,8.82-27.85,13.41-32.82.64-1,1.29-1.87,1.94-2.76a0,0,0,0,0,0,0h0c.33-.44.66-.88,1-1.3l-.29,0a4.55,4.55,0,0,0-1.29.43,9.52,9.52,0,0,0-2.7,2.08c-5.22,5.43-10.59,18.64-13.51,31.48-.19.85-.38,1.69-.54,2.52-.11.54-.22,1.07-.31,1.59v0c-.17.91-.33,1.81-.47,2.7a22.06,22.06,0,0,1-.69,3.12v0c-.1.3-.19.54-.28.74l0,.11a1.83,1.83,0,0,1-.43.66,1.3,1.3,0,0,1-.69-.52c-2.87-3.46-8.05-23.29-8.86-37-.78-13.23-11.14-33.1-18-46.24-2.11-4.06-3.94-7.56-5.1-10.11a52.57,52.57,0,0,0-23.15-25.77c-11.91-6.67-27.32-10-46-10a210.85,210.85,0,0,0-34.89,3.21c-26.92,4.56-48.57,23.65-62.62,55.21a167.59,167.59,0,0,0-7.68,21.12q-.88,3-1.59,5.76c-1,3.79-1.74,7.21-2.32,10.1,0,0,0,.05,0,.07-.4,2-.72,3.77-1,5.21a225.73,225.73,0,0,0-18.78-41c-4.89-8.47-5-20.72-.19-34.49,7.65-22.07,30.49-53.4,69.69-69.08,47.19-18.88,87.42-6.13,143.11,11.53,8.72,2.76,17.74,5.62,27.23,8.5,26,7.88,32.4,32.37,37.53,52.06,1.25,4.81,2.44,9.37,3.82,13.31,4,11.41,3.32,28,2.06,39.87,0,.44-.09.88-.14,1.31s-.1.88-.15,1.3q.46.5.9,1c.3.36.6.72.89,1.09.05-.44.11-.9.17-1.36s.11-.89.16-1.35C1034.34,377,1035.29,359,1030.92,346.5Zm-36.09,45.85c-5.22,5.43-10.59,18.64-13.51,31.48-.19.85-.38,1.69-.54,2.52-.11.54-.22,1.07-.31,1.59v0c-.17.91-.33,1.81-.47,2.7a22.06,22.06,0,0,1-.69,3.12l2.13-5.58c.06-.35.13-.71.2-1.06.11-.56.23-1.12.34-1.67s.26-1.18.4-1.78.3-1.28.46-1.91.25-1,.38-1.52c0-.09,0-.17.07-.25.14-.53.29-1.06.44-1.59.48-1.73,1-3.44,1.56-5.1.17-.53.35-1.05.53-1.57.27-.75.53-1.5.81-2.23s.65-1.71,1-2.54c.2-.5.41-1,.62-1.48s.41-1,.63-1.43c.52-1.17,1.06-2.29,1.6-3.34.17-.34.35-.68.53-1,.45-.84.91-1.64,1.37-2.38l.39-.63a24.8,24.8,0,0,1,2.76-3.63h0c.66-1,1.33-1.91,2-2.81A9.52,9.52,0,0,0,994.83,392.35Z" transform="translate(-692.91 -250.39)"/><path d="M1043,418.83c-1,13,1,36-12,46a77,77,0,0,1-24.67,12.4c-1,.28-1.73.46-2.08.54h0l-.15,0-.09,0-.53-.85-.06-.11h.07a2.6,2.6,0,0,1,.4,0h0c.26-.06.9-.21,1.87-.49l1.62-.48a76.2,76.2,0,0,0,23-11.81c10.32-7.94,10.84-24.34,11.26-37.52.09-2.8.17-5.44.35-7.77.63-8.13-2.69-18.54-9.38-27-.29-.37-.59-.73-.89-1.09s-.59-.69-.9-1a40.52,40.52,0,0,0-11.3-8.93h0a10.48,10.48,0,0,0-1.59-.69,9.88,9.88,0,0,0-1.4-.35,11.55,11.55,0,0,0-7.18,1.22c-3.56,1.74-7,4.87-10.22,8.9-.33.42-.66.86-1,1.3h0a0,0,0,0,1,0,0c-.65.89-1.3,1.8-1.94,2.76a97.79,97.79,0,0,0-13.41,32.82q-.18.85-.33,1.71h0c-.17.86-.31,1.72-.45,2.59-.44,2.76-1.17,5.9-3,6.29l-.08-.13-.52-.84.62-1.64,0-.11.28-.74v0l2.13-5.58c.06-.35.13-.71.2-1.06.11-.56.23-1.12.34-1.67s.26-1.18.4-1.78a97.48,97.48,0,0,1,13.14-30.61h0c.66-1,1.33-1.91,2-2.81,5.66-7.49,12.1-12.28,18.28-11.71a10.06,10.06,0,0,1,1.32.21,9.66,9.66,0,0,1,1.43.42,12.68,12.68,0,0,1,1.42.64,41.36,41.36,0,0,1,11,8.51c.32.33.62.67.91,1s.61.69.9,1C1040,399.1,1043.65,410.07,1043,418.83Z" transform="translate(-692.91 -250.39)"/><path class="cls-1" d="M1044,418.91c-.18,2.28-.26,4.9-.35,7.67-.41,12.88-1,30.53-12,39a76.13,76.13,0,0,1-27,13.1l-.39.09-.21,0a1,1,0,0,1-1-.79v0a1,1,0,0,1,.45-1,.83.83,0,0,1,.32-.13l.09,0h0c.26-.06.9-.21,1.87-.49l1.62-.48a76.2,76.2,0,0,0,23-11.81c10.32-7.94,10.84-24.34,11.26-37.52.09-2.8.17-5.44.35-7.77.63-8.13-2.69-18.54-9.38-27-.29-.37-.59-.73-.89-1.09s-.59-.69-.9-1a40.52,40.52,0,0,0-11.3-8.93h0a10.48,10.48,0,0,0-1.59-.69,9.88,9.88,0,0,0-1.4-.35,11.55,11.55,0,0,0-7.18,1.22c-3.56,1.74-7,4.87-10.22,8.9-.33.42-.66.86-1,1.3h0a0,0,0,0,1,0,0c-.65.89-1.3,1.8-1.94,2.76a97.79,97.79,0,0,0-13.41,32.82q-.18.85-.33,1.71h0l0,.17-2.15,5.62,0,.08-.27.68,0,.08-.62,1.63a1,1,0,0,1-1.11.63.61.61,0,0,1-.18-.05,1,1,0,0,1-.58-1.29l.06-.17.38-1,2.62-6.84v0c.09-.52.2-1.05.31-1.59.16-.83.35-1.67.54-2.52a99.65,99.65,0,0,1,13.51-31.48c4.12-6.07,8.78-10.88,13.62-13.25a14.25,14.25,0,0,1,6.71-1.58,12.4,12.4,0,0,1,2.58.37,12.58,12.58,0,0,1,2.71,1.06A42.07,42.07,0,0,1,1031.1,387c.32.32.63.65.92,1s.62.68.91,1C1040.76,398.17,1044.68,409.87,1044,418.91Z" transform="translate(-692.91 -250.39)"/><path d="M1146,691.83c-33.23-17.07-87.44-61.56-98.13-70.44h0l-1.84-1.53,0,0-.65.83c-3.16,4-17.94,21.57-44.35,39.17-30,20-87,31-106,31-14.88,0-19.58-18.71-20.92-26.82-.14-.88-.25-1.63-.32-2.22v0c-.12-.92-.16-1.44-.16-1.44s-.23.23-.67.64A146.92,146.92,0,0,1,849,678.83c-15,9-97,45-97,45-45,23-54,60-58,117,0,0,372-5,529-5C1226,793.83,1183,710.83,1146,691.83Zm76.06,143c-151.55,0-504.59,4.69-527,5,4.24-59.06,14.42-93.14,57.33-115.07,3.35-1.48,82.23-36.13,97.11-45.06a150.82,150.82,0,0,0,22.86-16.85h0c.16-.13.31-.27.45-.4.06.46.13,1,.22,1.55h0c.1.61.22,1.28.35,2,1.72,9,6.9,25.85,21.61,25.85,17.88,0,75.71-10.6,106.55-31.17,25.6-17.06,40.5-34.35,44.29-39l.31-.39c.24.2.52.44.86.71h0l1.29,1.06h0c12.9,10.66,65.12,53.18,97.24,69.67,17,8.74,36.86,32.27,53.08,62.95C1214.16,785.12,1223.09,815.31,1222,834.83Z" transform="translate(-692.91 -250.39)"/><path class="cls-1" d="M1146.44,690.94c-35.93-18.45-97.32-69.78-99.75-71.82v0l-.06,0-.81-.68-.47.63-.16.22-.47.6c-2.75,3.46-17.65,21.42-44.28,39.17-30.52,20.34-87.75,30.83-105.45,30.83-15.42,0-19.41-21.85-20.23-28v0c-.13-1-.18-1.53-.18-1.57l-.1-1.23h0l-.07-.9-1,1-.56.55A142.42,142.42,0,0,1,848.47,678c-14.78,8.87-96.07,44.58-97,45-44.08,22.53-54.29,57.35-58.54,117.82l-.07,1.08H694c3.72-.05,373.79-5,529-5h.93l.07-.93C1227.09,792.3,1182.89,709.66,1146.44,690.94ZM1222,834.83c-151.55,0-504.59,4.69-527,5,4.24-59.06,14.42-93.14,57.33-115.07,3.35-1.48,82.23-36.13,97.11-45.06a150.82,150.82,0,0,0,22.86-16.85h0c.16-.13.31-.27.45-.4.06.46.13,1,.22,1.55h0c.1.61.22,1.28.35,2,1.72,9,6.9,25.85,21.61,25.85,17.88,0,75.71-10.6,106.55-31.17,25.6-17.06,40.5-34.35,44.29-39l.31-.39c.24.2.52.44.86.71h0l1.29,1.06h0c12.9,10.66,65.12,53.18,97.24,69.67,17,8.74,36.86,32.27,53.08,62.95C1214.16,785.12,1223.09,815.31,1222,834.83Z" transform="translate(-692.91 -250.39)"/></svg>