<?xml version="1.0" encoding="utf-8"?>
<!-- Generator: Adobe Illustrator 26.1.0, SVG Export Plug-In . SVG Version: 6.00 Build 0)  -->
<svg version="1.1" id="Layer_1" xmlns="http://www.w3.org/2000/svg" xmlns:xlink="http://www.w3.org/1999/xlink" x="0px" y="0px"
	 viewBox="0 0 995.8 729.8" style="enable-background:new 0 0 995.8 729.8;" xml:space="preserve">
<style type="text/css">
	.st0{stroke:#FFFFFF;stroke-width:2;stroke-miterlimit:10;}
	.st1{fill:none;stroke:#FFFFFF;stroke-width:2;stroke-miterlimit:10;}
	.st2{fill:#FFFFFF;}
</style>
<rect x="9.7" width="991.9" height="725.5"/>
<path class="st0" d="M34.2,699.5c2.4-8.1,38.1-176.2,50.2-195.6c12.1-19.4,25.1-59.1,71.2-72.8s59.9-17.6,68-30.2
	c8.1-12.6,21.8-20.7,12.9-24.8c-8.9-4-51-12.1-52.6-21.8c-1.6-9.7-1.3-20.2,0.3-24c1.6-3.8-5.1-7-4.9-14.8s1.3-12.4,0.3-17.3
	c-1.1-4.9-0.5-4.6,0-11.6c0.5-7-7.3-18.2-4-23.6c3.2-5.5,16.7-15.4,15.6-21.8c-1.1-6.4-2.2-29.5-1.1-33.9
	c1.1-4.3-11.3-25.3,3.8-57.7s60.4-65.8,116-63.6c55.6,2.2,95.5,39.9,103.6,62c24.3,18.9,6.5,110.2-7.6,131.1
	c-14,21-50.2,72.2-50.2,72.2s16.2,1.6,23.2,17.8c7,16.2,79.8,47.5,99.2,59.3s72.8,48.5,82.5,78.2c9.7,29.7,30.2,204.2,30.2,216.2"/>
<path class="st1" d="M361.4,343.3c0,0,22.4-64.3,26.2-76.1c3.8-11.9-5.1-24.3-28-29.9c-22.9-5.7-41.8-15.4-40.7-27.5
	c1.1-12.1-18.1-20-24.3-19.4s-12.4-4,9.4-40.7c-62.6-36.1-108.3,14.9-117.4,36.9c-6.7,16-5,12-5,12s-3.5-51.2,42.3-84.8"/>
<path class="st1" d="M354.1,247.7c12.7-5.4,36.4-3,34.2,12.9c-2.1,16-15.1,38.1-29.1,41.8c-14,3.8-26.2-1.3-25.1-8.9"/>
<path class="st2" d="M578.2,438.9c-1.3-1-2.6-2-4-3.1l-1.6-1.2l-1.7-1.3l-0.5-0.1c-0.6-0.1-1.3-0.3-1.9-0.4l0,0
	c-0.9-0.2-1.8-0.5-2.7-0.8l2.2,1.8l1.9,1.6c2.5,2,4.7,3.7,6.8,5.4c17.7,13.8,23.7,18.4,23.7,53.1c-0.4,3-0.9,6-1.7,9
	c-0.2,0.7-0.4,1.4-0.6,2.1c-0.2,0.7-0.4,1.4-0.6,2c0.2-0.1,0.3-0.3,0.5-0.4c0.1,0.5,0.1,1.1,0.2,1.7c0.1,0.6,0.2,1.4,0.4,2.2
	c0.3-0.7,0.5-1.4,0.7-2.2s0.5-1.6,0.7-2.4c1.1-3.9,1.9-7.8,2.4-11.8v-0.1C602.8,458,596.1,452.8,578.2,438.9z M737.6,306.6
	c0,1.3,0,2.6,0,3.9l0,0c0,3.7,0.2,7.4,0.6,11.1c0.1,1,0.2,2,0.3,3.1l0,0c3.8,35,15.7,75.8,20.3,91.3c5,17,22.3,39.8,25.6,44.1
	l0.5,0.7c0.1,0.1,0.1,0.1,0.2,0.2c0.2,0.3,0.4,0.7,0.5,1.1l0.3-0.4c0.3,0.2,0.6,0.5,0.9,0.8l1.4,1.2c-0.1-0.6-0.3-1.2-0.5-1.8l0,0
	c-0.3-0.8-0.7-1.6-1.2-2.3l-0.1-0.1l0,0c-1.5-1.9-20.6-26.5-25.7-43.9c-4.7-16-17.2-58.5-20.6-94c-0.4-4.6-0.6-9.2-0.6-13.9l0,0
	c0-0.1,0-0.2,0-0.3l0,0c0-0.3,0-0.6,0-0.9c0-0.3,0-0.6,0-1l0,0c0,0,0-0.1,0-0.1h-0.1"/>
<path class="st2" d="M756.1,199.7l-0.9-1.4c-0.9-0.2-1.9-0.4-2.8-0.4l0.7,1.1c0.3,0.4,0.5,0.8,0.8,1.2c0.5,0.1,1,0.2,1.5,0.4
	c0.6,0.2,1.2,0.5,1.7,0.7L756.1,199.7z M740.2,305.4L740.2,305.4c-0.1,0-0.3,0-0.4,0h-0.1c-0.4,0-0.7,0.1-1,0.3
	c-0.4,0.2-0.8,0.5-1.1,0.9c-1.2,1.7-1.2,5.2-1.2,10.8c0,3.9,0,9.3-0.4,16.1c-0.8,14.4-12,22.8-29,35.5c-6.5,4.8-13.7,10.2-21.5,16.8
	c-26.5,22.4-85.4,52.6-114.5,47.5l-0.5-0.1c-0.6-0.1-1.3-0.3-1.9-0.4l0,0c-0.9-0.2-1.8-0.5-2.7-0.8c-28.3-9.6-49.3-55.9-59.5-83.6
	c-9.5-25.6-15.1-67.9-19.2-98.8c-0.8-6.1-1.6-11.8-2.3-16.8c0.2-0.8,0.8-3.9,1.5-9c0.5-3.1,1-6.8,1.5-11.2l0,0
	c0.2-2,0.4-4.1,0.6-6.3c-0.6,2.2-1.2,4.2-1.7,6.2c-1.1,4.1-1.9,7.8-2.5,10.9c0,0,0,0.1,0,0.1c-0.6,4-1.1,6.7-1.4,8.1l0,0
	c-0.1,0.6-0.2,1-0.2,1v0.2v0.2c0.2,1.2,0.4,2.5,0.5,3.9l0,0c0.6,4,1.1,8.4,1.7,13.1c4.1,31,9.7,73.4,19.3,99.3
	c11,29.6,34.1,80.1,65.7,86.2h0.1c0.7,0.1,1.4,0.2,2.2,0.3c0.8,0.1,1.3,0.2,2,0.2c1.2,0.1,2.4,0.1,3.7,0.1
	c31.3,0,84.2-27.6,108.9-48.6c7.7-6.5,15-11.9,21.4-16.7c16.9-12.6,29.1-21.7,29.9-37.1c0.2-3.2,0.3-6.2,0.3-8.8l0,0
	c0.1-2.9,0.1-5.3,0.1-7.4c0-3,0-5.2,0.1-6.7c0.2-2,0.5-2.8,1.1-3.1l0,0c0.2-0.1,0.4-0.1,0.6-0.1c0.2,0,0.4,0,0.6-0.1
	c0.7-0.4,1.4-0.9,1.9-1.6c0.3-0.4,0.7-0.9,1.2-1.5l-1.8,0.5C741.2,305.1,740.5,305.3,740.2,305.4L740.2,305.4z"/>
<path class="st2" d="M730.4,213.9c-5.7,5.9-11.5,20.2-14.6,34.1c-0.2,0.9-0.4,1.8-0.6,2.7c-0.1,0.6-0.2,1.2-0.3,1.7l0,0
	c-0.2,1-0.4,2-0.5,2.9c-0.2,1.1-0.4,2.3-0.7,3.4l2.3-6c0.1-0.4,0.1-0.8,0.2-1.1c0.1-0.6,0.2-1.2,0.4-1.8s0.3-1.3,0.4-1.9
	c0.2-0.6,0.3-1.4,0.5-2.1c0.2-0.7,0.3-1.1,0.4-1.6c0-0.1,0-0.2,0.1-0.3c0.2-0.6,0.3-1.1,0.5-1.7c0.5-1.9,1.1-3.7,1.7-5.5
	c0.2-0.6,0.4-1.1,0.6-1.7c0.3-0.8,0.6-1.6,0.9-2.4c0.3-0.8,0.7-1.9,1.1-2.8c0.2-0.5,0.4-1.1,0.7-1.6s0.4-1.1,0.7-1.5
	c0.4-1,0.9-1.9,1.3-2.8c0.1-0.3,0.3-0.6,0.4-0.9c0.2-0.3,0.4-0.7,0.6-1.1c0.5-0.9,1-1.8,1.5-2.6l0.4-0.7c0.9-1.4,1.9-2.7,3-3.9l0,0
	c0.7-1.1,1.4-2.1,2.2-3C732.2,212.2,731.2,213,730.4,213.9z M769.5,164.2c-1.5-4.2-2.7-9.1-4.1-14.2c-5.7-21.8-12.8-49-42.1-57.9
	c-10.3-3.1-20-6.2-29.5-9.2c-60.8-19.2-104.6-33.1-156.5-12.4c-43.1,17.2-68.2,51.8-76.7,76.1c-5.4,15.5-5.2,29.4,0.4,39.1
	c16,27.7,21.5,48.3,21.5,48.5l0.7,2.5l0,0l0.8,3.1l0.3-2.8l0,0l0.3-3c0-0.1,0.5-4,1.7-10.3c2.7-13.6,6.9-26.9,12.4-39.6
	c10.4-23.3,30.3-52.4,66.2-58.5c37.5-6.3,66.4-3.9,86.2,7.1c10.9,5.9,19.4,15.4,24.2,26.9c1.3,2.8,3.2,6.6,5.6,11.1
	c7.3,14.1,18.4,35.3,19.2,49.2c0.7,12.2,6.3,40.8,11.9,42.6c0.1,0,0.1,0,0.2,0.1c0.1,0,0.2,0,0.3,0h0.1c0.1,0,0.3,0,0.4-0.1
	c2-0.4,2.8-3.8,3.2-6.8c0.2-0.9,0.3-1.9,0.5-2.8l0,0c0.1-0.6,0.2-1.2,0.4-1.9c3.2-15.8,9.5-30.2,14.5-35.5c0.7-1.1,1.4-2,2.1-3l0,0
	c0.4-0.5,0.7-1,1.1-1.4h-0.3c-0.5,0.1-1,0.2-1.4,0.5c-1.1,0.6-2.1,1.3-2.9,2.3c-5.7,5.9-11.5,20.2-14.6,34.1
	c-0.2,0.9-0.4,1.8-0.6,2.7c-0.1,0.6-0.2,1.2-0.3,1.7l0,0c-0.2,1-0.4,2-0.5,2.9c-0.2,1.1-0.4,2.3-0.7,3.4l0,0
	c-0.1,0.3-0.2,0.6-0.3,0.8v0.1c-0.1,0.3-0.3,0.5-0.5,0.7c-0.3-0.1-0.6-0.3-0.7-0.6c-3.1-3.7-8.7-25.2-9.6-40.1
	c-0.8-14.3-12.1-35.8-19.5-50.1c-2.3-4.4-4.3-8.2-5.5-10.9c-5-11.9-13.8-21.7-25.1-27.9c-12.9-7.2-29.6-10.8-49.8-10.8
	c-12.7,0.1-25.3,1.3-37.8,3.5c-29.1,4.9-52.6,25.6-67.8,59.8c-3.3,7.4-6.1,15.1-8.3,22.9c-0.6,2.2-1.2,4.2-1.7,6.2
	c-1.1,4.1-1.9,7.8-2.5,10.9c0,0,0,0.1,0,0.1c-0.4,2.2-0.8,4.1-1.1,5.6c-5.3-15.4-12.1-30.3-20.3-44.4c-5.3-9.2-5.4-22.4-0.2-37.3
	c8.3-23.9,33-57.8,75.5-74.8c51.1-20.4,94.7-6.6,154.9,12.5c9.4,3,19.2,6.1,29.5,9.2c28.2,8.5,35.1,35,40.6,56.4
	c1.4,5.2,2.6,10.1,4.1,14.4c4.3,12.4,3.6,30.3,2.2,43.2c0,0.5-0.1,1-0.2,1.4s-0.1,1-0.2,1.4c0.3,0.4,0.7,0.7,1,1.1
	c0.3,0.4,0.6,0.8,1,1.2c0-0.5,0.1-1,0.2-1.5c0.1-0.5,0.1-1,0.2-1.5C773.2,197.2,774.2,177.8,769.5,164.2z M730.5,213.9
	c-5.7,5.9-11.5,20.2-14.6,34.1c-0.2,0.9-0.4,1.8-0.6,2.7c-0.1,0.6-0.2,1.2-0.3,1.7l0,0c-0.2,1-0.4,2-0.5,2.9
	c-0.2,1.1-0.4,2.3-0.7,3.4l2.3-6c0.1-0.4,0.1-0.8,0.2-1.1c0.1-0.6,0.2-1.2,0.4-1.8c0.1-0.6,0.3-1.3,0.4-1.9c0.2-0.6,0.3-1.4,0.5-2.1
	c0.2-0.7,0.3-1.1,0.4-1.6c0-0.1,0-0.2,0.1-0.3c0.2-0.6,0.3-1.1,0.5-1.7c0.5-1.9,1.1-3.7,1.7-5.5c0.2-0.6,0.4-1.1,0.6-1.7
	c0.3-0.8,0.6-1.6,0.9-2.4c0.3-0.8,0.7-1.9,1.1-2.8c0.2-0.5,0.4-1.1,0.7-1.6c0.2-0.5,0.4-1.1,0.7-1.5c0.4-1,0.9-1.9,1.3-2.8
	c0.1-0.3,0.3-0.6,0.4-0.9c0.2-0.3,0.4-0.7,0.6-1.1c0.5-0.9,1-1.8,1.5-2.6l0.4-0.7c0.9-1.4,1.9-2.7,3-3.9l0,0c0.7-1.1,1.4-2.1,2.2-3
	C732.3,212.2,731.3,213,730.5,213.9L730.5,213.9z"/>
<path class="st2" d="M783.6,242.7c-0.2,2.5-0.3,5.3-0.4,8.3c-0.4,13.9-1.1,33.1-13,42.2c-8.7,6.6-18.6,11.4-29.2,14.2l-0.4,0.1h-0.2
	c-0.2,0-0.4-0.1-0.6-0.2l0,0c-0.2-0.2-0.4-0.4-0.5-0.7l0,0c-0.1-0.4,0.1-0.9,0.5-1.1c0.1-0.1,0.2-0.1,0.3-0.1h0.1l0,0
	c0.3-0.1,1-0.2,2-0.5l1.8-0.5c9-2.8,17.4-7.1,24.9-12.8c11.2-8.6,11.7-26.4,12.2-40.6c0.1-3,0.2-5.9,0.4-8.4
	c0.7-8.8-2.9-20.1-10.2-29.2c-0.3-0.4-0.6-0.8-1-1.2c-0.3-0.4-0.6-0.7-1-1.1c-3.5-3.9-7.6-7.2-12.2-9.7l0,0
	c-0.6-0.3-1.1-0.5-1.7-0.7c-0.5-0.2-1-0.3-1.5-0.4c-2.7-0.4-5.4,0.1-7.8,1.3c-3.9,1.9-7.6,5.3-11.1,9.6c-0.4,0.5-0.7,0.9-1.1,1.4
	l0,0c-0.7,1-1.4,1.9-2.1,3c-7,10.9-11.9,22.9-14.5,35.5c-0.1,0.6-0.2,1.2-0.4,1.9l0,0l-0.1,0.2l-2.3,6.1v0.1l-0.3,0.7v0.1l-0.7,1.8
	c-0.2,0.5-0.7,0.8-1.2,0.7c-0.1,0-0.1,0-0.2-0.1c-0.6-0.2-0.8-0.8-0.6-1.4c0,0,0,0,0,0l0.1-0.2l0.4-1.1l2.8-7.4l0,0
	c0.1-0.6,0.2-1.1,0.3-1.7c0.2-0.9,0.4-1.8,0.6-2.7c2.9-12.1,7.8-23.7,14.6-34.1c4.5-6.6,9.5-11.8,14.7-14.3c2.2-1.2,4.7-1.7,7.3-1.7
	c0.9,0,1.9,0.2,2.8,0.4c1,0.3,2,0.7,2.9,1.1c4.3,2.3,8.2,5.2,11.5,8.7c0.3,0.3,0.7,0.7,1,1.1s0.7,0.7,1,1.1
	C780.1,220.2,784.4,232.9,783.6,242.7z"/>
<path d="M564.4,521.9c-72.4,41.2-122,60.6-143,118.9s-28.5,90.6,25.9,89s254.8-10.5,254.8-10.5L575.9,502.4L564.4,521.9z"/>
<path class="st2" d="M978.5,698.5l-2.2-0.2c3.1-43.4-41.5-138-82.8-159.2c-34.8-17.9-91.3-63.9-105.3-75.4l-1.4-1.2
	c-0.4-0.3-0.7-0.6-0.9-0.8l-0.3,0.4c-4.1,5-20.2,23.8-48,42.2c-33.4,22.3-96,33.7-115.4,33.7c-15.9,0-21.5-18.2-23.4-28
	c-0.1-0.8-0.3-1.5-0.4-2.2c-0.1-0.7-0.2-1.2-0.2-1.7c-0.2,0.1-0.3,0.3-0.5,0.4l0,0c-7.7,6.8-15.9,13-24.8,18.2
	c-16.1,9.7-101.5,47.2-105.1,48.8c-46.7,23.9-57.6,61.1-62.1,125.7c0,0,0,0.1,0,0.1l-2.2-0.2c4.6-65.5,15.7-103.2,63.4-127.6
	c1-0.4,89-39.1,105-48.7c9.5-5.7,18.3-12.3,26.4-19.9l0.6-0.6l1.1-1.1l0.1,1l0.1,1.3c0,0,0,0.7,0.2,1.7c0.9,6.6,5.2,30.3,21.9,30.3
	c19.2,0,81.1-11.4,114.2-33.4c28.8-19.2,45-38.7,47.9-42.4l0.5-0.6l0.2-0.2l0.5-0.7l0.9,0.7h0.1l0,0c2.6,2.2,69.1,57.8,108,77.8
	c18.7,9.6,40.5,36.2,58.4,71.3C970.3,642.3,980,676.8,978.5,698.5z"/>
</svg>
