<svg id="Layer_1" data-name="Layer 1" xmlns="http://www.w3.org/2000/svg" viewBox="0 0 531.15 590.5"><defs><style>.cls-1{fill:#fff;}</style></defs><title>me_thin_allblack</title><path class="cls-1" d="M755.31,994.72c-1.17-.91-2.4-1.86-3.69-2.88l-1.46-1.15-1.53-1.23-.43-.08c-.59-.11-1.17-.24-1.75-.39h0c-.82-.2-1.64-.45-2.45-.73l2,1.64,1.79,1.44c2.27,1.82,4.37,3.46,6.32,5,16.39,12.74,21.92,17,21.93,49a66.09,66.09,0,0,1-1.55,8.3c-.16.64-.34,1.28-.52,1.9s-.37,1.25-.56,1.86c.16-.13.31-.27.45-.4.06.46.13,1,.22,1.56s.22,1.28.35,2c.24-.64.47-1.3.69-2s.47-1.44.69-2.19a67.16,67.16,0,0,0,2.22-10.87v-.12C778,1012.36,771.83,1007.56,755.31,994.72ZM902.46,872.5c0,1.2,0,2.41,0,3.63v0c0,3.38.22,6.82.54,10.28.09.94.18,1.88.28,2.83h0c3.47,32.37,14.52,70,18.76,84.35,4.61,15.68,20.64,36.78,23.69,40.72l.48.62a1.08,1.08,0,0,1,.14.21,5,5,0,0,1,.49,1l.31-.39c.24.2.52.44.86.71l1.29,1.08a11,11,0,0,0-.43-1.66h0a7.46,7.46,0,0,0-1.08-2.17l-.07-.09v0c-1.37-1.76-19-24.51-23.74-40.55-4.35-14.78-15.89-54-19-86.81a126.29,126.29,0,0,1-.54-12.81h0a1,1,0,0,1,0-.25h0c0-.26,0-.53,0-.79s0-.59,0-.89h0a.41.41,0,0,1,0-.11h-.07" transform="translate(-594.01 -644.92)"/><path class="cls-1" d="M919.59,773.72l-.82-1.3a12.4,12.4,0,0,0-2.58-.37l.65,1c.24.37.47.74.7,1.11a9.88,9.88,0,0,1,1.4.35,10.48,10.48,0,0,1,1.59.69Zm-14.67,97.63h0a2.6,2.6,0,0,0-.4,0h-.07a2.94,2.94,0,0,0-.95.26,2.57,2.57,0,0,0-1,.84c-1.12,1.57-1.12,4.81-1.12,9.93,0,3.62,0,8.57-.33,14.88-.7,13.31-11.08,21.05-26.8,32.77-6,4.43-12.68,9.46-19.85,15.52-24.48,20.71-78.92,48.6-105.73,43.86l-.43-.08c-.59-.11-1.17-.24-1.75-.39h0c-.82-.2-1.64-.45-2.45-.73-26.12-8.88-45.54-51.65-55-77.24-8.79-23.66-13.94-62.72-17.7-91.24-.74-5.62-1.44-10.93-2.08-15.49.15-.72.72-3.59,1.42-8.34.42-2.82.89-6.29,1.35-10.37h0c.2-1.84.41-3.78.6-5.86q-.88,3-1.59,5.76c-1,3.79-1.74,7.21-2.32,10.1,0,0,0,.05,0,.07-.56,3.69-1,6.22-1.27,7.48h0c-.11.58-.17.89-.18.91l0,.18,0,.18c.16,1.14.33,2.33.5,3.56v0c.51,3.71,1.05,7.8,1.61,12.06,3.77,28.61,8.94,67.81,17.8,91.68,10.14,27.31,31.51,74,60.69,79.62h.06c.64.12,1.29.23,2,.31s1.21.14,1.84.19c1.11.09,2.25.13,3.43.13,28.92,0,77.75-25.5,100.61-44.85,7.11-6,13.82-11,19.74-15.43,15.59-11.63,26.86-20,27.61-34.28.15-3,.24-5.72.28-8.12h0c.05-2.66.05-4.94.05-6.85,0-2.8,0-4.77.13-6.15.14-1.81.42-2.58,1-2.82h0a1.53,1.53,0,0,1,.54-.09,1.39,1.39,0,0,0,.6-.11,5.09,5.09,0,0,0,1.73-1.49c.31-.37.67-.82,1.07-1.38l-1.62.48C905.82,871.14,905.18,871.29,904.92,871.35Z" transform="translate(-594.01 -644.92)"/><path class="cls-1" d="M895.86,786.88c-5.22,5.43-10.59,18.64-13.51,31.48-.19.85-.38,1.69-.54,2.52-.11.54-.22,1.07-.31,1.59v0c-.17.91-.33,1.81-.47,2.7a22.06,22.06,0,0,1-.69,3.12l2.13-5.58c.06-.35.13-.71.2-1.06.11-.56.23-1.12.34-1.67s.26-1.18.4-1.78.3-1.28.46-1.91.25-1,.38-1.52c0-.09,0-.17.07-.25.14-.53.29-1.06.44-1.59.48-1.73,1-3.44,1.56-5.1.17-.53.35-1.05.53-1.57.27-.75.53-1.5.81-2.23s.65-1.71,1-2.54c.2-.5.41-1,.62-1.48s.41-1,.63-1.43c.39-.88.79-1.73,1.2-2.54.13-.27.26-.54.4-.8s.35-.68.53-1c.45-.84.91-1.64,1.37-2.38l.39-.63a24.8,24.8,0,0,1,2.76-3.63h0c.66-1,1.33-1.91,2-2.81A9.52,9.52,0,0,0,895.86,786.88ZM932,741c-1.35-3.87-2.52-8.38-3.77-13.16-5.25-20.16-11.79-45.26-38.88-53.47-9.48-2.87-18.49-5.73-27.21-8.49C806,648.13,765.5,635.29,717.64,654.43c-39.83,15.93-63,47.82-70.84,70.29-5,14.32-4.84,27.16.34,36.14,14.75,25.57,19.85,44.57,19.9,44.75l.62,2.34v0l.75,2.83.29-2.58v0l.3-2.73c0-.09.43-3.71,1.59-9.53a178.45,178.45,0,0,1,11.48-36.59c9.59-21.54,28-48.4,61.11-54,34.59-5.86,61.37-3.64,79.61,6.57a50.07,50.07,0,0,1,22.31,24.85c1.18,2.6,3,6.13,5.15,10.21,6.77,13,17,32.63,17.76,45.44.67,11.3,5.86,37.64,11,39.35a.61.61,0,0,0,.18.05,1.26,1.26,0,0,0,.27,0h.1a1.4,1.4,0,0,0,.41-.05c1.86-.39,2.59-3.53,3-6.29.14-.87.28-1.73.45-2.59h0q.15-.85.33-1.71c2.94-14.59,8.82-27.85,13.41-32.82.64-1,1.29-1.87,1.94-2.76h0c.33-.44.66-.88,1-1.3l-.29,0a4.55,4.55,0,0,0-1.29.43,9.52,9.52,0,0,0-2.7,2.08c-5.22,5.43-10.59,18.64-13.51,31.48-.19.85-.38,1.69-.54,2.52-.11.54-.22,1.07-.31,1.59v0c-.17.91-.33,1.81-.47,2.7a22.06,22.06,0,0,1-.69,3.12v0c-.1.3-.19.54-.28.74l0,.11a1.83,1.83,0,0,1-.43.66,1.3,1.3,0,0,1-.69-.52c-2.87-3.46-8-23.29-8.86-37-.78-13.23-11.14-33.1-18-46.24-2.11-4.06-3.94-7.56-5.1-10.11a52.57,52.57,0,0,0-23.15-25.77c-11.91-6.67-27.32-10-46-10a210.85,210.85,0,0,0-34.89,3.21c-26.92,4.56-48.57,23.65-62.62,55.21a167.59,167.59,0,0,0-7.68,21.12q-.88,3-1.59,5.76c-1,3.79-1.74,7.21-2.32,10.1,0,0,0,.05,0,.07-.4,2-.72,3.77-1,5.21a225.73,225.73,0,0,0-18.78-41c-4.89-8.47-5-20.72-.19-34.49,7.65-22.07,30.49-53.4,69.69-69.08,47.19-18.88,87.42-6.13,143.11,11.53,8.72,2.76,17.74,5.62,27.23,8.5,26,7.88,32.4,32.37,37.53,52.06,1.25,4.81,2.44,9.37,3.82,13.31,4,11.41,3.32,28,2.06,39.87,0,.44-.09.88-.14,1.31s-.1.88-.15,1.3q.46.5.9,1c.3.36.6.72.89,1.09,0-.44.11-.9.17-1.36s.11-.89.16-1.35C935.37,771.48,936.32,753.53,932,741Zm-36.09,45.85c-5.22,5.43-10.59,18.64-13.51,31.48-.19.85-.38,1.69-.54,2.52-.11.54-.22,1.07-.31,1.59v0c-.17.91-.33,1.81-.47,2.7a22.06,22.06,0,0,1-.69,3.12l2.13-5.58c.06-.35.13-.71.2-1.06.11-.56.23-1.12.34-1.67s.26-1.18.4-1.78.3-1.28.46-1.91.25-1,.38-1.52c0-.09,0-.17.07-.25.14-.53.29-1.06.44-1.59.48-1.73,1-3.44,1.56-5.1.17-.53.35-1.05.53-1.57.27-.75.53-1.5.81-2.23s.65-1.71,1-2.54c.2-.5.41-1,.62-1.48s.41-1,.63-1.43c.39-.88.79-1.73,1.2-2.54.13-.27.26-.54.4-.8s.35-.68.53-1c.45-.84.91-1.64,1.37-2.38l.39-.63a24.8,24.8,0,0,1,2.76-3.63h0c.66-1,1.33-1.91,2-2.81A9.52,9.52,0,0,0,895.86,786.88Z" transform="translate(-594.01 -644.92)"/><path class="cls-1" d="M945,813.44c-.18,2.28-.26,4.9-.35,7.67-.41,12.88-1,30.53-12,39a76.13,76.13,0,0,1-27,13.1l-.39.09-.21,0a1,1,0,0,1-.54-.16h0a1,1,0,0,1-.44-.62v0a1,1,0,0,1,.45-1,.83.83,0,0,1,.32-.13l.09,0h0c.26-.06.9-.21,1.87-.49l1.62-.48a76.2,76.2,0,0,0,23-11.81c10.32-7.94,10.84-24.34,11.26-37.52.09-2.8.17-5.44.35-7.77.63-8.13-2.69-18.54-9.38-27-.29-.37-.59-.73-.89-1.09s-.59-.69-.9-1a40.52,40.52,0,0,0-11.3-8.93h0a10.48,10.48,0,0,0-1.59-.69,9.88,9.88,0,0,0-1.4-.35,11.53,11.53,0,0,0-7.18,1.22c-3.56,1.74-7,4.87-10.22,8.9-.33.42-.66.86-1,1.3h0c-.65.89-1.3,1.8-1.94,2.76a97.79,97.79,0,0,0-13.41,32.82q-.18.85-.33,1.71h0l-.05.17-2.15,5.62,0,.08-.27.68,0,.08-.62,1.63a1,1,0,0,1-1.11.63.61.61,0,0,1-.18-.05,1,1,0,0,1-.58-1.29l.06-.17.38-1,2.62-6.84v0c.09-.52.2-1.05.31-1.59.16-.83.35-1.67.54-2.52a99.65,99.65,0,0,1,13.51-31.48c4.12-6.07,8.78-10.88,13.62-13.25a14.25,14.25,0,0,1,6.71-1.58,12.4,12.4,0,0,1,2.58.37,12.58,12.58,0,0,1,2.71,1.06,42.07,42.07,0,0,1,10.65,8.08c.32.32.63.65.92,1s.62.68.91,1C941.79,792.7,945.71,804.4,945,813.44Z" transform="translate(-594.01 -644.92)"/><path class="cls-1" d="M1125,1234.43l-2-.14c2.87-40.11-38.37-127.48-76.46-147-32.12-16.49-84.34-59-97.24-69.67L948,1016.5c-.34-.27-.62-.51-.86-.71l-.31.39c-3.79,4.66-18.69,22-44.29,39-30.84,20.57-88.67,31.17-106.55,31.17-14.71,0-19.89-16.8-21.61-25.85-.13-.71-.25-1.38-.35-2s-.16-1.1-.22-1.56c-.14.13-.29.27-.45.4h0a150.82,150.82,0,0,1-22.86,16.85c-14.88,8.93-93.76,43.58-97.11,45.06-43.15,22.06-53.2,56.4-57.39,116.08a.17.17,0,0,0,0,.07l-2-.14c4.25-60.47,14.46-95.29,58.54-117.82.88-.39,82.17-36.1,97-45a142.42,142.42,0,0,0,24.4-18.35l.56-.55,1-1,.07.91.1,1.23s0,.61.18,1.57c.81,6.11,4.79,28,20.23,28,17.7,0,74.93-10.49,105.45-30.83,26.63-17.75,41.53-35.71,44.28-39.17l.47-.6.16-.22.47-.63.81.68.06,0v0c2.43,2,63.82,53.37,99.75,71.82,17.25,8.86,37.41,33.46,53.93,65.81C1117.39,1182.59,1126.43,1214.45,1125,1234.43Z" transform="translate(-594.01 -644.92)"/></svg>