<?xml version="1.0" encoding="utf-8"?>
<!-- Generator: Adobe Illustrator 26.1.0, SVG Export Plug-In . SVG Version: 6.00 Build 0)  -->
<svg version="1.1" id="Layer_1" xmlns="http://www.w3.org/2000/svg" xmlns:xlink="http://www.w3.org/1999/xlink" x="0px" y="0px"
	 viewBox="0 0 995.8 729.8" style="enable-background:new 0 0 995.8 729.8;" xml:space="preserve">
<style type="text/css">
	.st0{stroke:#FFFFFF;stroke-width:2;stroke-miterlimit:10;}
	.st1{fill:none;stroke:#FFFFFF;stroke-width:2;stroke-miterlimit:10;}
	.st2{fill:#FFFFFF;}
</style>
<path d="M977.8,698.5l-2.2-0.2c3.1-43.4-41.6-138-82.8-159.2c-34.8-17.8-91.3-63.9-105.3-75.4l-1.4-1.2c-0.4-0.3-0.7-0.6-0.9-0.8
	l-0.3,0.4c-4.1,5-20.2,23.8-48,42.2c-33.4,22.3-96,33.8-115.4,33.8c-15.9,0-21.5-18.2-23.4-28c-0.1-0.8-0.3-1.5-0.4-2.2
	c-0.1-0.6-0.2-1.1-0.2-1.6c-0.1,0.1-0.3,0.3-0.5,0.4c0,0,0-0.1,0-0.2c0,0-0.1,0.1-0.1,0.1c-4.2,3.8-8.6,7.3-13.2,10.6
	c-3.7,2.7-7.6,5.3-11.6,7.6c-1.7,1-4.2,2.4-7.3,4c-17,8.7-52.3,24.6-75.5,34.9c-12.3,5.5-21.2,9.4-22.3,9.9
	c-45.1,23.1-56.8,58.5-61.6,119c-0.2,2.2-0.3,4.4-0.5,6.7v0.1l-0.1,0c-0.2,6.1,0.5,11.3,2.6,15.6l-374-15.6
	c2.4-8.1,38.1-176.2,50.2-195.6c12.1-19.4,25.1-59.1,71.2-72.8s59.9-17.6,68-30.2c8.1-12.6,21.8-20.7,12.9-24.8
	c-8.9-4-51-12.1-52.6-21.8c-1.6-9.7-1.3-20.2,0.3-24c1.6-3.8-5.1-7-4.9-14.8c0.3-7.8,1.3-12.4,0.3-17.2c-1.1-4.9-0.5-4.6,0-11.6
	c0.5-7-7.3-18.1-4-23.6c3.2-5.5,16.7-15.4,15.6-21.8c-1.1-6.3-2.2-29.5-1.1-33.9c0.6-2.3-2.8-9.5-3.6-20.8
	c-3.6,8.7-4.8,11.5-5.1,12.2c0-0.1,0.1-0.2,0.1-0.2s-3.5-51.1,42.2-84.8c0,0,0.1,0,0.1-0.1c21.8-17,52-29.1,86-27.7
	c55.5,2.2,95.5,39.9,103.5,62c24.3,18.9,6.5,110.2-7.5,131.1c-10.6,15.8-33.8,49-44.5,64.2c0,0,0,0,0,0c-3.5,4.9-5.6,8-5.6,8
	s16.2,1.6,23.2,17.8s79.8,47.5,99.2,59.3c19.4,11.9,72.8,48.5,82.5,78.2c1.1,3.4,2.3,8.6,3.7,15.3l19.1-6.4
	c5.2-3.8,10.2-7.9,14.9-12.3l0.6-0.6l0,0c0.7-2.9,1.3-5.9,1.6-8.9c0-34.7-6-39.3-23.7-53c-2.1-1.7-4.4-3.4-6.8-5.4l-0.2-0.1
	c-31.5-6.3-54.5-56.7-65.5-86.2c-9.6-25.8-15.2-68.3-19.3-99.3c-0.6-4.2-1.1-8.3-1.6-12l-0.3-1l-0.7-2.5
	c-0.1-0.2-5.6-20.8-21.5-48.5c-5.6-9.7-5.8-23.6-0.4-39.1c8.5-24.3,33.6-58.8,76.7-76.1c51.8-20.7,95.7-6.8,156.5,12.4
	c9.4,3,19.2,6.1,29.5,9.2c29.3,8.9,36.4,36.1,42.1,57.9c1.3,5.2,2.6,10.1,4.1,14.2c4.7,13.6,3.7,33,2.2,46c0,0,0,0,0,0.1
	c0,0,0.1,0,0.1,0.1c8.4,9.9,12.6,22.5,11.9,32.3c-0.2,2.5-0.3,5.3-0.4,8.3c-0.5,13.9-1.1,33.1-13,42.2c-8.6,6.6-18.5,11.4-29,14.1
	c0,0,0,0-0.1,0c-0.2,0.1-0.4,0.1-0.7,0.1c-0.2,0-0.4,0-0.6,0.1c-0.1,0-0.1,0.1-0.2,0.1c0,4.6,0.2,9.2,0.6,13.8
	c3.4,35.5,15.9,78,20.6,94c2.6,8.7,8.6,19.2,14.2,27.8c5,7.7,9.7,13.9,11.1,15.7l0,0l0.3,0.3h0.1c1.3,1.1,18.6,15.5,40.4,32.2
	c21.8,16.7,48.1,35.6,67.6,45.6c18.7,9.6,40.5,36.2,58.4,71.2C969.6,642.3,979.4,676.8,977.8,698.5z"/>
<path class="st0" d="M33.6,699.5c2.4-8.1,38.1-176.2,50.2-195.6c12.1-19.4,25.1-59.1,71.2-72.8s59.9-17.6,68-30.2
	c8.1-12.6,21.8-20.7,12.9-24.8c-8.9-4-51-12.1-52.6-21.8c-1.6-9.7-1.3-20.2,0.3-24c1.6-3.8-5.1-7-4.9-14.8
	c0.3-7.8,1.3-12.4,0.3-17.2c-1.1-4.9-0.5-4.6,0-11.6c0.5-7-7.3-18.1-4-23.6c3.2-5.5,16.7-15.4,15.6-21.8c-1.1-6.3-2.2-29.5-1.1-33.9
	c0.6-2.3-2.8-9.5-3.6-20.8v0c-0.7-9.6,0.4-22.1,7.4-37c5.8-12.5,16.2-25.1,29.8-35.8c0,0,0.1,0,0.1-0.1c21.8-17,52-29.1,86-27.7
	c55.5,2.2,95.5,39.9,103.5,62c24.3,18.9,6.5,110.2-7.5,131.1c-10.6,15.8-33.8,49-44.5,64.2c0,0,0,0,0,0c-3.5,4.9-5.6,8-5.6,8
	s16.2,1.6,23.2,17.8s79.8,47.5,99.2,59.3c19.4,11.9,72.8,48.5,82.5,78.2c1.1,3.4,2.3,8.6,3.7,15.3c0.3,1.5,0.6,3.2,0.9,4.8
	c0.1,0.7,0.3,1.5,0.4,2.2c-17,8.7-52.3,24.6-75.5,34.9c-12.3,5.5-21.2,9.4-22.3,9.9c-45.1,23.1-56.8,58.5-61.6,119
	c-0.2,2.2-0.3,4.4-0.5,6.7v0.1l-0.1,0"/>
<path class="st1" d="M180.7,198.9C180.7,198.9,180.7,198.9,180.7,198.9C180.7,198.9,180.7,198.9,180.7,198.9"/>
<path class="st1" d="M185.9,186.5L185.9,186.5c9.1-22,54.8-73.1,117.4-37c-21.8,36.7-15.6,41.3-9.4,40.7c6.2-0.5,25.3,7.3,24.3,19.4
	c-1.1,12.1,17.8,21.8,40.7,27.5c10.3,2.5,17.7,6.4,22.5,11c3.9,3.8,6,8,6.3,12.4c0,0,0,0,0,0c0.2,2.2-0.1,4.3-0.8,6.5
	c-3.7,11.8-25.9,75.1-26.2,76.1"/>
<path class="st1" d="M353.5,247.7c12.7-5.4,36.4-3,34.2,12.9c-2.1,16-15.1,38.1-29.1,41.8s-26.2-1.3-25.1-8.9"/>
<path class="st2" d="M577.6,438.9c-1.3-1-2.6-2-4-3.1l-0.1-0.1l-1.5-1.1l-1.7-1.3l-0.5-0.1c-0.6-0.1-1.3-0.3-1.9-0.4
	c-0.9-0.2-1.8-0.5-2.7-0.8l2.2,1.8l1.8,1.4l0.2,0.1c2.5,2,4.7,3.7,6.8,5.4c17.7,13.8,23.7,18.4,23.7,53c-0.4,3-0.9,5.9-1.6,8.9
	c0,0,0,0.1,0,0.1c-0.2,0.7-0.4,1.4-0.6,2c-0.2,0.6-0.4,1.2-0.6,1.9c0,0,0,0.1,0,0.2c0.2-0.1,0.3-0.3,0.5-0.4c0,0,0,0,0,0
	c0.1,0.5,0.1,1.1,0.2,1.7c0.1,0.6,0.2,1.4,0.4,2.2c0.3-0.7,0.5-1.4,0.8-2.2c0.2-0.8,0.5-1.5,0.7-2.4c0,0,0-0.1,0-0.2
	c1.1-3.8,1.9-7.7,2.4-11.6v-0.1C602.1,458,595.5,452.8,577.6,438.9z M787.2,461.8c-0.3-0.8-0.7-1.6-1.2-2.3l-0.1-0.1
	c-0.1-0.1-0.2-0.2-0.3-0.4l0,0c-1.4-1.8-6.1-8-11.1-15.7c-5.6-8.6-11.7-19.1-14.2-27.8c-4.7-16-17.2-58.5-20.6-94
	c-0.4-4.6-0.6-9.2-0.6-13.8v-0.1c0,0,0-0.1,0-0.1s0-0.1,0-0.1v-1.9H739l-2.1,1.2v3.9c0,3.7,0.2,7.4,0.6,11.1c0.1,1,0.2,2,0.3,3.1
	c0,0.4,0.1,0.9,0.2,1.3c1.9,17.2,5.8,35.6,9.7,51.7c4,16.5,8.2,30.6,10.5,38.4c5,17,22.3,39.8,25.6,44.1l0,0l0.5,0.7
	c0,0.1,0.1,0.1,0.2,0.2c0.2,0.3,0.4,0.7,0.5,1.1l0.3-0.4c0.3,0.2,0.6,0.5,0.9,0.8l1.4,1.2C787.5,463,787.4,462.4,787.2,461.8z"/>
<path class="st2" d="M755.4,199.7l-0.9-1.4l0,0c-0.9-0.2-1.8-0.4-2.8-0.4l0,0l0.7,1c0.3,0.4,0.5,0.8,0.8,1.2c0.5,0.1,1,0.2,1.5,0.4
	c0.6,0.2,1.2,0.4,1.7,0.8L755.4,199.7z M741.8,304.8c-1.2,0.4-1.9,0.5-2.2,0.6c-0.1,0-0.3,0-0.4,0h-0.1c-0.4,0-0.7,0.1-1,0.3
	c-0.4,0.2-0.8,0.5-1.1,0.9c0,0,0,0,0,0.1c-1.2,1.7-1.2,5.2-1.2,10.7c0,3.9,0,9.3-0.4,16.1c-0.8,14.4-12,22.8-29,35.5
	c-6.5,4.8-13.7,10.2-21.5,16.8c-26.5,22.4-85.4,52.6-114.5,47.5l-0.5-0.1c-0.6-0.1-1.3-0.3-1.9-0.4c-0.9-0.2-1.8-0.5-2.7-0.8
	c-28.3-9.6-49.3-55.9-59.5-83.6c-9.5-25.6-15.1-67.9-19.2-98.8c-0.8-6.1-1.6-11.8-2.2-16.8c0.2-0.8,0.8-3.9,1.5-9
	c0.1-0.5,0.1-0.9,0.2-1.4c0.4-2.8,0.8-6,1.2-9.8c0.2-2,0.4-4.1,0.6-6.3c-0.6,2.2-1.2,4.2-1.7,6.2c-1.1,4.1-1.9,7.8-2.5,10.9
	c0,0,0,0,0,0.1c-0.6,4-1.1,6.7-1.4,8.1c-0.1,0.6-0.2,1-0.2,1v0.4c0.2,1.2,0.4,2.5,0.5,3.8c0,0.4,0.1,0.7,0.1,1c0.5,3.7,1,7.8,1.6,12
	c4.1,31,9.7,73.4,19.3,99.3c11,29.5,34,79.8,65.5,86.2c0.1,0,0.2,0,0.3,0.1h0.1c0.7,0.1,1.4,0.2,2.2,0.3c0.7,0.1,1.2,0.1,1.7,0.2
	c0.1,0,0.2,0,0.3,0c1.2,0.1,2.4,0.1,3.7,0.1c31.3,0,84.2-27.6,108.9-48.6c7.7-6.5,15-11.9,21.4-16.7c16.9-12.6,29.1-21.7,29.9-37.1
	c0.1-2.7,0.2-5.2,0.3-7.5c0-0.4,0-0.9,0-1.3c0-2.9,0-5.3,0-7.4c0-3,0-5.2,0.1-6.7c0.1-1.7,0.4-2.6,0.9-2.9c0.1-0.1,0.1-0.1,0.2-0.1
	c0.2-0.1,0.4-0.1,0.6-0.1c0.2,0,0.4,0,0.7-0.1c0,0,0,0,0.1,0c0.7-0.4,1.3-0.9,1.8-1.6c0.3-0.4,0.7-0.9,1.1-1.4c0,0,0,0,0,0
	L741.8,304.8z"/>
<path class="st2" d="M730.2,213.4c-0.2,0.1-0.3,0.3-0.5,0.5c-5.6,5.9-11.5,20.2-14.6,34.1c-0.2,0.9-0.4,1.8-0.6,2.7
	c-0.1,0.6-0.2,1.2-0.3,1.7c0,0.2-0.1,0.4-0.1,0.6c-0.1,0.8-0.3,1.6-0.4,2.4c-0.2,1.1-0.4,2.3-0.7,3.4l0.2-0.4l2.1-5.6
	c0.1-0.4,0.1-0.8,0.2-1.2c0.1-0.6,0.2-1.2,0.4-1.8c0.1-0.6,0.3-1.3,0.4-1.9c0.2-0.7,0.3-1.4,0.5-2.1s0.3-1.1,0.4-1.7
	c0-0.1,0-0.2,0.1-0.3c0.2-0.6,0.3-1.2,0.5-1.7c0.5-1.9,1.1-3.7,1.7-5.5c0.2-0.6,0.4-1.1,0.6-1.7c0.3-0.8,0.6-1.6,0.9-2.4
	c0.3-0.8,0.7-1.8,1.1-2.8c0.2-0.5,0.4-1.1,0.7-1.6c0.2-0.5,0.4-1.1,0.7-1.5c0.4-1,0.9-1.9,1.3-2.8c0.1-0.3,0.3-0.6,0.4-0.9
	c0.1-0.3,0.4-0.7,0.6-1.1c0.5-0.9,1-1.8,1.5-2.6l0.4-0.7c0.9-1.4,1.9-2.7,3-3.9c0.7-1.1,1.4-2,2.2-3
	C731.8,212.1,730.9,212.7,730.2,213.4z M768.9,164.2c-1.5-4.2-2.7-9.1-4.1-14.2c-5.7-21.8-12.8-49-42.1-57.9
	c-10.3-3.1-20-6.2-29.5-9.2c-60.8-19.2-104.6-33.1-156.5-12.4c-43.1,17.2-68.2,51.8-76.7,76.1c-5.4,15.5-5.2,29.4,0.4,39.1
	c16,27.7,21.5,48.3,21.5,48.5l0.7,2.5l0.3,1l0.6,2.1l0.3-2.8l0.3-3c0-0.1,0.5-4,1.7-10.3c0.1-0.5,0.2-1,0.3-1.5
	c2.7-13.1,6.8-25.9,12.1-38.1c10.4-23.3,30.3-52.4,66.2-58.5c37.5-6.3,66.5-3.9,86.2,7.1c10.9,5.9,19.4,15.4,24.2,26.9
	c1.3,2.8,3.2,6.6,5.6,11.1c7.3,14.1,18.4,35.3,19.2,49.2c0.7,12.2,6.3,40.8,11.9,42.6c0,0,0,0,0.1,0c0,0,0,0,0,0c0,0,0.1,0,0.1,0
	c0.1,0,0.2,0,0.3,0h0.1c0.1,0,0.2,0,0.3,0c0,0,0.1,0,0.1,0c2-0.4,2.8-3.8,3.2-6.8c0.1-0.7,0.2-1.5,0.4-2.2c0-0.2,0.1-0.4,0.1-0.6
	c0.1-0.6,0.2-1.2,0.4-1.9c3.2-15.8,9.5-30.1,14.5-35.5c0.7-1.1,1.4-2,2.1-3c0.4-0.5,0.7-1,1.1-1.4H734c-0.5,0.1-1,0.2-1.4,0.5
	c-0.8,0.4-1.5,0.9-2.2,1.5c-0.3,0.2-0.5,0.5-0.7,0.7c-5.7,5.9-11.5,20.2-14.6,34.1c-0.2,0.9-0.4,1.8-0.6,2.7
	c-0.1,0.6-0.2,1.2-0.3,1.7c-0.1,0.3-0.1,0.6-0.2,0.9c-0.1,0.7-0.2,1.3-0.3,2c-0.2,1.1-0.4,2.3-0.8,3.4c-0.1,0.3-0.2,0.6-0.3,0.8v0.1
	c-0.1,0.3-0.3,0.5-0.5,0.7c-0.3-0.1-0.5-0.2-0.7-0.5c0,0-0.1-0.1-0.1-0.1c-3.1-3.8-8.7-25.2-9.6-40.1c-0.9-14.3-12.1-35.8-19.5-50.1
	c-2.3-4.4-4.3-8.2-5.5-10.9c-5-11.9-13.8-21.7-25.1-27.9c-12.9-7.2-29.6-10.8-49.8-10.8c-12.7,0.1-25.3,1.3-37.8,3.5
	c-29.1,4.9-52.6,25.6-67.8,59.8c-3.3,7.4-6.1,15.1-8.3,22.9c-0.6,2.2-1.2,4.2-1.7,6.2c-1.1,4.1-1.9,7.8-2.5,10.9c0,0,0,0,0,0.1
	c-0.4,2.2-0.8,4.1-1.1,5.6c-5.3-15.4-12.1-30.3-20.3-44.4c-5.3-9.2-5.4-22.4-0.2-37.3c8.3-23.9,33-57.8,75.5-74.8
	c51.1-20.4,94.7-6.6,154.9,12.5c9.4,3,19.2,6.1,29.5,9.2c28.1,8.5,35.1,35,40.6,56.4c1.4,5.2,2.6,10.1,4.1,14.4
	c4.3,12.3,3.6,30.3,2.2,43.2v0.1c0,0.5-0.1,0.9-0.2,1.3c0,0.5-0.1,1-0.2,1.4c0.3,0.4,0.7,0.7,1,1.1c0.3,0.4,0.7,0.8,1,1.2
	c0-0.5,0.1-1,0.2-1.5c0.1-0.5,0.1-0.9,0.2-1.4c0,0,0-0.1,0-0.1C772.5,197.2,773.6,177.8,768.9,164.2z M732.7,211.6
	c-0.9,0.5-1.8,1.1-2.5,1.8c-0.2,0.1-0.3,0.3-0.5,0.5l0.1,0c-5.7,5.9-11.5,20.2-14.6,34.1c-0.2,0.9-0.4,1.8-0.6,2.7
	c-0.1,0.6-0.2,1.2-0.3,1.7c0,0.1,0,0.2-0.1,0.3c-0.2,0.9-0.3,1.7-0.5,2.6c-0.1,1-0.4,2-0.6,3c0,0.1-0.1,0.2-0.1,0.4l2.3-6
	c0.1-0.4,0.1-0.8,0.2-1.1c0.1-0.6,0.2-1.2,0.4-1.8c0.1-0.6,0.3-1.3,0.4-1.9c0.2-0.6,0.3-1.4,0.5-2.1c0.2-0.7,0.3-1.1,0.4-1.6
	c0-0.1,0-0.2,0.1-0.3c0.2-0.6,0.3-1.2,0.5-1.7c0.5-1.9,1.1-3.7,1.7-5.5c0.2-0.6,0.4-1.1,0.6-1.7c0.3-0.8,0.6-1.6,0.9-2.4
	c0.3-0.8,0.7-1.9,1.1-2.8c0.2-0.5,0.4-1.1,0.7-1.6c0.2-0.5,0.4-1.1,0.7-1.5c0.4-1,0.9-1.9,1.3-2.8c0.1-0.3,0.3-0.6,0.4-0.9
	c0.1-0.3,0.4-0.7,0.6-1.1c0.5-0.9,1-1.8,1.5-2.6l0.4-0.7c0.9-1.4,1.9-2.7,3-3.9C731.3,213.6,732,212.6,732.7,211.6
	C732.7,211.6,732.7,211.6,732.7,211.6z"/>
<path class="st2" d="M783,242.7c-0.2,2.5-0.3,5.3-0.4,8.3c-0.5,13.9-1.1,33.1-13,42.2c-8.6,6.6-18.5,11.4-29,14.1
	c-0.1,0-0.1,0-0.2,0l-0.4,0.1h-0.2c-0.2,0-0.4-0.1-0.6-0.2c0,0-0.1,0-0.1-0.1c-0.2-0.2-0.4-0.4-0.4-0.6c0-0.1,0-0.1,0-0.2
	c0-0.3,0.2-0.6,0.4-0.8c0,0,0.1,0,0.1-0.1c0.1-0.1,0.2-0.1,0.3-0.2h0.1c0.3-0.1,1-0.2,2-0.5l1.8-0.5c0,0,0.1,0,0.1,0
	c8.9-2.8,17.3-7.1,24.8-12.7c11.2-8.6,11.7-26.4,12.2-40.6c0.1-3,0.2-5.9,0.4-8.4c0.7-8.8-2.9-20.1-10.1-29.2
	c-0.3-0.4-0.6-0.8-1-1.2c-0.3-0.4-0.6-0.8-1-1.1c-3.5-3.9-7.6-7.2-12.2-9.7c-0.6-0.3-1.1-0.5-1.7-0.8c-0.5-0.2-1-0.3-1.5-0.4
	c-2.7-0.4-5.4,0-7.8,1.3c-3.9,1.9-7.6,5.3-11.1,9.6c-0.4,0.4-0.7,0.9-1.1,1.4c-0.7,1-1.4,1.9-2.1,3c-7,10.9-11.9,22.9-14.5,35.5
	c-0.1,0.6-0.2,1.2-0.4,1.8l-0.1,0.2l-0.1,0.3l-2.2,5.8v0.1l-0.3,0.7v0.1l-0.7,1.8c-0.1,0.3-0.3,0.5-0.6,0.6
	c-0.2,0.1-0.4,0.1-0.6,0.1c-0.1,0-0.1,0-0.2-0.1l0,0c0,0,0,0,0,0c-0.5-0.2-0.8-0.8-0.6-1.4l0.1-0.2l0.4-1.1l0-0.1l2.5-6.5l0.1-0.3
	l0.1-0.3l0.1-0.3c0.1-0.6,0.2-1.1,0.3-1.7c0.2-0.9,0.4-1.8,0.6-2.7c2.9-12.1,7.8-23.6,14.6-34.1c0.1-0.2,0.2-0.3,0.4-0.5
	c0.1-0.1,0.1-0.2,0.2-0.3c4.3-6.2,9.1-11,14.2-13.5c2.2-1.1,4.7-1.7,7.2-1.7h0.1c0.9,0,1.8,0.2,2.7,0.4c0,0,0.1,0,0.1,0
	c1,0.3,2,0.7,2.9,1.2c4.2,2.3,8.1,5.2,11.5,8.7c0,0,0,0,0.1,0.1c0.3,0.3,0.7,0.7,1,1.1c0.3,0.3,0.6,0.7,0.9,1c0,0,0.1,0,0.1,0.1
	C779.5,220.2,783.7,232.9,783,242.7z"/>
<path d="M405.6,692.8c-0.2,2.2-0.3,4.4-0.5,6.7v0.1l-0.1,0C405.1,697.4,405.3,695.1,405.6,692.8z"/>
<path d="M556.1,725.5c-45,1.9-88.3,3.6-109.5,4.2c-12.6,0.4-21.9-1.1-28.4-4.2H556.1z"/>
<path class="st2" d="M977.8,698.5l-2.2-0.2c3.1-43.4-41.6-138-82.8-159.2c-34.8-17.8-91.3-63.9-105.3-75.4l-1.4-1.2
	c-0.4-0.3-0.7-0.6-0.9-0.8l-0.3,0.4c-4.1,5-20.2,23.8-48,42.2c-33.4,22.3-96,33.8-115.4,33.8c-15.9,0-21.5-18.2-23.4-28
	c-0.1-0.8-0.3-1.5-0.4-2.2c-0.1-0.6-0.2-1.1-0.2-1.6c0,0,0-0.1,0-0.1c-0.1,0.1-0.2,0.2-0.4,0.3c0,0-0.1,0.1-0.1,0.1
	c-4.2,3.8-8.6,7.3-13.2,10.6c-3.7,2.7-7.6,5.3-11.6,7.6c-1.7,1-4.2,2.4-7.3,4c-17,8.7-52.3,24.6-75.5,34.9
	c-12.3,5.5-21.2,9.4-22.3,9.9c-45.1,23.1-56.8,58.5-61.6,119c-0.2,2.2-0.3,4.4-0.5,6.7v0.1l-0.1,0l-2.1-0.1
	c4.6-65.5,15.6-103.2,63.4-127.6c0.4-0.2,18.2-8,39.1-17.4c0,0,0,0,0,0c21.4-9.6,46.1-21,59.2-27.7c2.8-1.4,5.1-2.7,6.7-3.6
	c4-2.4,7.8-4.9,11.5-7.6c5.2-3.8,10.2-7.9,14.9-12.3l0.6-0.6l0,0l1.1-1.1l0.1,1l0.1,1.3c0,0,0,0.7,0.2,1.7c0,0,0,0,0,0
	c0.9,6.6,5.2,30.3,21.9,30.3c19.2,0,81.1-11.4,114.2-33.4c28.6-19.1,44.8-38.4,47.9-42.3c0,0,0-0.1,0.1-0.1l0.5-0.7l0.2-0.2l0.5-0.7
	l0.5,0.4l0,0l0.3,0.3h0.1c1.3,1.1,18.6,15.5,40.4,32.2c21.8,16.7,48.1,35.6,67.6,45.6c18.7,9.6,40.5,36.2,58.4,71.2
	C969.6,642.3,979.4,676.8,977.8,698.5z"/>
</svg>
